<svg width="56" height="56" viewBox="0 0 56 56" fill="none" xmlns="http://www.w3.org/2000/svg">
<path d="M12.4445 12.7686H43.5556V43.2315H12.4445V12.7686Z" fill="url(#paint0_linear_1_5760)"/>
<path d="M23.7937 28.2767H26.5513L25.1725 22.9294L23.7937 28.2767ZM14.7982 15.1538V40.8612H41.2413V15.1538H14.7982ZM28.0647 34.1397L27.0558 30.6646H23.3228L22.3138 34.1397H19.7579L23.3564 21.8533V20.508H26.7868L30.8897 34.1397H28.0647V34.1397ZM34.8583 34.1397H32.1006V23.7703H34.8583V34.1397ZM33.4961 22.5259C32.7067 22.5259 32.0667 21.8935 32.0667 21.1135C32.0667 20.3333 32.7066 19.7009 33.4961 19.7009C34.2857 19.7009 34.9255 20.3333 34.9255 21.1135C34.9255 21.8935 34.2856 22.5259 33.4961 22.5259Z" fill="url(#paint1_linear_1_5760)"/>
<defs>
<linearGradient id="paint0_linear_1_5760" x1="43.3936" y1="12.6065" x2="12.9036" y2="43.0964" gradientUnits="userSpaceOnUse">
<stop stop-color="#FFAA2A"/>
<stop offset="1" stop-color="#FFC06C"/>
</linearGradient>
<linearGradient id="paint1_linear_1_5760" x1="28.0198" y1="15.1107" x2="28.0198" y2="40.7314" gradientUnits="userSpaceOnUse">
<stop stop-color="#251200"/>
<stop offset="1"/>
</linearGradient>
</defs>
</svg>