<svg width="56" height="56" viewBox="0 0 56 56" fill="none" xmlns="http://www.w3.org/2000/svg">
<path d="M13.7407 14.1296H42.2593V41.8704H13.7407V14.1296Z" fill="url(#paint0_radial_1_5776)"/>
<path d="M13.7407 14.1296H42.2593V41.8704H13.7407V14.1296ZM12.4445 43.1667H43.5556V12.8333H12.4445V43.1667ZM32.1223 25.4333C31.9278 25.3426 31.6685 25.3037 31.3574 25.3037C29.6852 25.3037 28.5185 26.5871 28.5185 28.7259C28.5185 31.163 29.7111 32.1481 31.2019 32.1481C31.526 32.1481 31.863 32.1092 32.1223 31.9926V25.4333ZM31.4352 23.3204C31.7074 23.3204 31.863 23.3204 32.1222 23.3463V19.8981C32.1222 19.8074 32.187 19.7685 32.2518 19.7685H34.3518C34.4555 19.7685 34.4815 19.8074 34.4815 19.8722V31.9926C34.4815 32.3555 34.4815 32.8093 34.5463 33.3019C34.5463 33.3926 34.5203 33.4056 34.4296 33.4575C33.3148 33.9889 32.1352 34.2223 31.0333 34.2223C28.1685 34.2223 26.1204 32.4464 26.1204 28.8297C26.1074 25.7315 28.1556 23.3204 31.4352 23.3204ZM23.826 33.8593C23.826 33.9889 23.8001 34.0278 23.6575 34.0278H21.6612C21.5315 34.0278 21.4926 33.963 21.4926 33.8593V19.937C21.4926 19.8074 21.5574 19.7685 21.6612 19.7685H23.6704C23.7741 19.7685 23.826 19.8073 23.826 19.924V33.8593Z" fill="#FF408C"/>
<defs>
<radialGradient id="paint0_radial_1_5776" cx="0" cy="0" r="1" gradientUnits="userSpaceOnUse" gradientTransform="translate(23.1334 20.3463) scale(21.6741 20.9845)">
<stop stop-color="#4B2B36" stop-opacity="0.98"/>
<stop offset="1" stop-color="#250012"/>
</radialGradient>
</defs>
</svg>
