<svg width="56" height="56" viewBox="0 0 56 56" fill="none" xmlns="http://www.w3.org/2000/svg">
<path d="M14.6557 27.9999C14.6557 33.2822 17.7253 37.8466 22.1766 40.01L15.811 22.569C15.048 24.2778 14.6543 26.1284 14.6557 27.9999ZM37.0088 27.3265C37.0088 25.6772 36.4164 24.5351 35.9083 23.6461C35.2319 22.5469 34.5981 21.616 34.5981 20.5168C34.5981 19.2901 35.5282 18.1482 36.8387 18.1482C36.8979 18.1482 36.954 18.1556 37.0119 18.1589C34.6375 15.9838 31.4744 14.6558 28.0002 14.6558C23.3383 14.6558 19.2367 17.0478 16.8506 20.6707C17.1637 20.6801 17.459 20.6864 17.7094 20.6864C19.1052 20.6864 21.2658 20.5171 21.2658 20.5171C21.9851 20.4747 22.0699 21.5312 21.3516 21.6163C21.3516 21.6163 20.6284 21.7014 19.824 21.7435L24.6835 36.1979L27.6041 27.4395L25.5248 21.7433C24.8062 21.7011 24.1254 21.616 24.1254 21.616C23.4063 21.5739 23.4906 20.4744 24.2097 20.5168C24.2097 20.5168 26.4135 20.6862 27.7247 20.6862C29.1203 20.6862 31.2811 20.5168 31.2811 20.5168C32.001 20.4744 32.0856 21.531 31.3667 21.616C31.3667 21.616 30.6423 21.7011 29.8394 21.7433L34.6618 36.0882L35.9926 31.6403C36.5698 29.7946 37.0088 28.4688 37.0088 27.3265Z" fill="#00749A"/>
<path d="M28.2344 29.1672L24.2305 40.8013C25.4546 41.162 26.7241 41.3452 28.0002 41.3452C29.5542 41.3452 31.0445 41.0763 32.4317 40.5887C32.3945 40.5305 32.3627 40.469 32.3367 40.4049L28.2344 29.1672ZM39.7095 21.5975C39.7669 22.0226 39.7994 22.4791 39.7994 22.9697C39.7994 24.3239 39.5465 25.8461 38.7848 27.7495L34.7086 39.5347C38.6758 37.2212 41.3443 32.9231 41.3443 27.9999C41.3478 25.7621 40.7855 23.5597 39.7095 21.5975Z" fill="#00749A"/>
<path d="M28.0003 12.4447C19.4231 12.4447 12.4445 19.4227 12.4445 27.9999C12.4445 36.5781 19.4228 43.5561 28.0003 43.5561C36.5772 43.5561 43.5567 36.5783 43.5567 27.9999C43.5565 19.4227 36.5772 12.4447 28.0003 12.4447ZM28.0003 42.8428C19.8164 42.8428 13.1578 36.1842 13.1578 27.9999C13.1578 19.8163 19.8161 13.1582 28.0003 13.1582C36.1839 13.1582 42.8419 19.8163 42.8419 27.9999C42.8419 36.1842 36.1836 42.8428 28.0003 42.8428Z" fill="#00749A"/>
</svg>
